<svg id="icon-phone" xmlns="http://www.w3.org/2000/svg" width="58" height="58" viewBox="0 0 58 58">
  <circle id="Ellipse_11" data-name="Ellipse 11" cx="29" cy="29" r="29" fill="#0076b6"/>
  <path id="Path_17" data-name="Path 17" d="M766.981,801.322c1.226.254,2.652,5.132,2.652,5.132a2.336,2.336,0,0,1-.576,1.969c-.8.743-2.389,2.1-2.389,2.1a12.85,12.85,0,0,0,2.964,8.291,10,10,0,0,0,8.05,4.043l2.633-2.394a1.843,1.843,0,0,1,1.835,0,42.812,42.812,0,0,1,4.125,2.394,3.457,3.457,0,0,1,0,2.222c-.426,1.078-2.523,2.938-4.125,3.738s-10.155.246-15.169-5.28a24.194,24.194,0,0,1-5.954-10.879s-1.366-4.641-.433-7.061S765.755,801.068,766.981,801.322Z" transform="translate(-744 -786)" fill="none" stroke="#fefeff" stroke-width="1"/>
</svg>
