<svg id="icon-sentry" xmlns="http://www.w3.org/2000/svg" width="58" height="58" viewBox="0 0 58 58">
  <circle id="Ellipse_8" data-name="Ellipse 8" cx="29" cy="29" r="29" fill="#0076b6"/>
  <g id="Rectangle_18" data-name="Rectangle 18" transform="translate(18 14)" fill="none" stroke="#fff" stroke-width="1">
    <path d="M2,0H20a2,2,0,0,1,2,2V8a0,0,0,0,1,0,0H0A0,0,0,0,1,0,8V2A2,2,0,0,1,2,0Z" stroke="none"/>
    <path d="M2,.5H20A1.5,1.5,0,0,1,21.5,2V7.5a0,0,0,0,1,0,0H.5a0,0,0,0,1,0,0V2A1.5,1.5,0,0,1,2,.5Z" fill="none"/>
  </g>
  <g id="Rectangle_19" data-name="Rectangle 19" transform="translate(15 21)" fill="none" stroke="#fff" stroke-width="1">
    <path d="M2,0H26a2,2,0,0,1,2,2V26a0,0,0,0,1,0,0H0a0,0,0,0,1,0,0V2A2,2,0,0,1,2,0Z" stroke="none"/>
    <path d="M2,.5H26A1.5,1.5,0,0,1,27.5,2V25.5a0,0,0,0,1,0,0H.5a0,0,0,0,1,0,0V2A1.5,1.5,0,0,1,2,.5Z" fill="none"/>
  </g>
  <rect id="Rectangle_20" data-name="Rectangle 20" width="30" height="3" transform="translate(14 45.5)" fill="#0076b6"/>
  <g id="Rectangle_21" data-name="Rectangle 21" transform="translate(19 25)" fill="none" stroke="#fff" stroke-width="1">
    <rect width="20" height="13" rx="2" stroke="none"/>
    <rect x="0.5" y="0.5" width="19" height="12" rx="1.5" fill="none"/>
  </g>
  <circle id="Ellipse_2" data-name="Ellipse 2" cx="1.5" cy="1.5" r="1.5" transform="translate(20 42)" fill="#fff"/>
  <circle id="Ellipse_3" data-name="Ellipse 3" cx="1.5" cy="1.5" r="1.5" transform="translate(27.5 42)" fill="#fff"/>
  <circle id="Ellipse_4" data-name="Ellipse 4" cx="1.5" cy="1.5" r="1.5" transform="translate(35 42)" fill="#fff"/>
</svg>
