<svg id="icon-directdebit" xmlns="http://www.w3.org/2000/svg" width="59" height="59" viewBox="0 0 59 59">
  <circle id="Ellipse_31" data-name="Ellipse 31" cx="29.5" cy="29.5" r="29.5" fill="#0076b6"/>
  <g id="Subtraction_1" data-name="Subtraction 1" transform="translate(17.5 2047.101)" fill="none">
    <path d="M21.2-2002.1H3a3,3,0,0,1-3-3v-26a3,3,0,0,1,3-3H15.808l8.393,8.393v20.607A3,3,0,0,1,21.2-2002.1Z" stroke="none"/>
    <path d="M 21.20039558410645 -2003.100463867188 C 22.30303573608398 -2003.100463867188 23.20010566711426 -2003.997436523438 23.20010566711426 -2005.10009765625 L 23.20010566711426 -2025.293212890625 L 15.39339256286621 -2033.099975585938 L 2.999705791473389 -2033.099975585938 C 1.89706563949585 -2033.099975585938 1.000005722045898 -2032.202880859375 1.000005722045898 -2031.100219726562 L 1.000005722045898 -2005.10009765625 C 1.000005722045898 -2003.997436523438 1.89706563949585 -2003.100463867188 2.999705791473389 -2003.100463867188 L 21.20039558410645 -2003.100463867188 M 21.20039558410645 -2002.100463867188 L 2.999705791473389 -2002.100463867188 C 1.345665693283081 -2002.100463867188 5.694580067938659e-06 -2003.446044921875 5.694580067938659e-06 -2005.10009765625 L 5.694580067938659e-06 -2031.100219726562 C 5.694580067938659e-06 -2032.754272460938 1.345665693283081 -2034.099975585938 2.999705791473389 -2034.099975585938 L 15.8076057434082 -2034.099975585938 L 24.20010566711426 -2025.707397460938 L 24.20010566711426 -2005.10009765625 C 24.20010566711426 -2003.446044921875 22.85444641113281 -2002.100463867188 21.20039558410645 -2002.100463867188 Z" stroke="none" fill="#fff"/>
  </g>
  <g id="Group_6" data-name="Group 6" transform="translate(1 8)">
    <path id="Path_26" data-name="Path 26" d="M3.534-1.93H9.5V-.891H.952V-1.93H2.369v-3.4H1.109V-6.369H2.369v-2.3a3.978,3.978,0,0,1,.37-1.755,2.837,2.837,0,0,1,1.039-1.189,2.829,2.829,0,0,1,1.551-.425H6.682a2.641,2.641,0,0,1,2.015.819,3.151,3.151,0,0,1,.8,2.172H8.367a2.212,2.212,0,0,0-.5-1.417A1.5,1.5,0,0,0,6.682-11H5.328a1.568,1.568,0,0,0-1.3.638,2.682,2.682,0,0,0-.5,1.692v2.3h3.4V-5.33h-3.4Z" transform="translate(22 30.891)" fill="#fff"/>
    <rect id="Rectangle_43" data-name="Rectangle 43" width="2" height="3" transform="translate(22 28)" fill="#0076b6"/>
  </g>
  <path id="Path_28" data-name="Path 28" d="M310.007,2399.624v8.044h8.22" transform="translate(-277 -2386)" fill="none" stroke="#fff" stroke-width="1"/>
</svg>
