<svg xmlns="http://www.w3.org/2000/svg" xmlns:xlink="http://www.w3.org/1999/xlink" width="22.207" height="24.106" viewBox="0 0 22.207 24.106">
  <defs>
    <linearGradient id="linear-gradient" x1="-0.133" y1="0.031" x2="0.951" y2="0.759" gradientUnits="objectBoundingBox">
      <stop offset="0" stop-color="#27b9ec"/>
      <stop offset="0.305" stop-color="#25afe1"/>
      <stop offset="0.5" stop-color="#20a4d2"/>
      <stop offset="0.668" stop-color="#1c97c5"/>
      <stop offset="1" stop-color="#006e98"/>
    </linearGradient>
  </defs>
  <path id="barclays-icon" d="M24.064,5.171a3.4,3.4,0,0,0-1.238-1.529,4.644,4.644,0,0,0-1.02-.583,3.7,3.7,0,0,0-.947-.146h-.073a1.943,1.943,0,0,0-1.675.729,1.205,1.205,0,0,0-.218,1.02.888.888,0,0,0,.583.655.319.319,0,0,0,.218.073.736.736,0,0,1-.073.218,2.021,2.021,0,0,1-1.675.583h-.073A2.514,2.514,0,0,1,16.2,5.317a3.95,3.95,0,0,1-.583-2.476,5,5,0,0,0-.218-1.6A1.455,1.455,0,0,0,14.814.51a3.356,3.356,0,0,0-.729-.364L12.847,0c-.437,0-.729.073-.874.291h-.437c-.218,0-.51.073-.729.073a2.248,2.248,0,0,0-1.02.51,1.68,1.68,0,0,0-.437.655,4.106,4.106,0,0,0,.073.51l.073.073a1.171,1.171,0,0,1,.8-.218c.51,0,1.238.218,1.384.583A2.329,2.329,0,0,1,11.9,4.005c-.218,1.384-.729,2.039-1.821,2.185a1.813,1.813,0,0,1-.583.073,1.766,1.766,0,0,1-1.675-.729V5.388a.226.226,0,0,0,.146-.073,1.035,1.035,0,0,0,.583-.655,1.264,1.264,0,0,0-.218-1.02,2.371,2.371,0,0,0-1.675-.729,3.786,3.786,0,0,0-1.02.146A3.71,3.71,0,0,0,3.378,5.17a7.885,7.885,0,0,0-.8,3.059,20.359,20.359,0,0,0,0,2.986,9.49,9.49,0,0,0,.729,3.277,14.7,14.7,0,0,0,1.311,2.622,4.074,4.074,0,0,0,.364.583l.073-.073a1.006,1.006,0,0,0,.218-.291,6.669,6.669,0,0,0,.947-1.166,5.523,5.523,0,0,0,.51-.947l.073-.146.146.073a.827.827,0,0,1,.218.583,2.947,2.947,0,0,1-.218.874,10.632,10.632,0,0,1-.729,1.675c.073.073.073.218,0,.218A1.079,1.079,0,0,0,6,19.153h.073a1.039,1.039,0,0,0,.583-.291,7.246,7.246,0,0,0,1.529-1.675,12.925,12.925,0,0,0,1.384-2.4l.073-.146.146.073c.073.073.146.073.218.146a1.423,1.423,0,0,1,.073.583A10.369,10.369,0,0,1,9.423,17.4,16.469,16.469,0,0,1,7.6,20.318a.329.329,0,0,1-.218.218,1.006,1.006,0,0,0,.291.218l.218.218a14.756,14.756,0,0,0,2.476,1.675,16.322,16.322,0,0,0,3.2,1.457,12.977,12.977,0,0,0,3.2-1.457,14.756,14.756,0,0,0,2.476-1.675l.218-.218c.146-.073.218-.218.291-.218a.551.551,0,0,0,.073-.291l-.073-.073a14.188,14.188,0,0,1-1.821-2.913,10.387,10.387,0,0,1-.655-1.966.775.775,0,0,1,.073-.583l.146-.146a.36.36,0,0,1,.218-.073l.073.146a18.855,18.855,0,0,0,1.384,2.4,7.254,7.254,0,0,0,1.529,1.675.87.87,0,0,0,.583.291h.073c.073-.073,0-.218-.218-.583a.268.268,0,0,1-.073-.218,10.667,10.667,0,0,1-.729-1.675,3.572,3.572,0,0,1-.218-.874.827.827,0,0,1,.218-.583L20.494,15l.073.146a6.329,6.329,0,0,0,.583,1.02c.146.218.729.874.874,1.092.146.146.218.218.218.291l.073.073a2.337,2.337,0,0,0,.291-.51l.073-.073a17.635,17.635,0,0,0,1.238-2.622,10.977,10.977,0,0,0,.729-3.277,13.572,13.572,0,0,0,0-2.986,6.442,6.442,0,0,0-.583-2.986Z" transform="translate(-2.522)" fill="url(#linear-gradient)"/>
</svg>
