<svg xmlns="http://www.w3.org/2000/svg" width="24.082" height="24.072" viewBox="0 0 24.082 24.072">
  <g id="icon-profile" transform="translate(0.511 0.501)">
    <path id="Path_1" data-name="Path 1" d="M480.443,86.906s.119-5.523,4.45-6.678,3.989-1.827,4.054-2" transform="translate(-480.443 -63.846)" fill="none" stroke="#0076b6" stroke-linecap="round" stroke-width="1"/>
    <path id="Path_2" data-name="Path 2" d="M488.947,86.906s-.119-5.523-4.45-6.678-3.989-1.827-4.054-2" transform="translate(-465.886 -63.846)" fill="none" stroke="#0076b6" stroke-linecap="round" stroke-width="1"/>
    <path id="Path_3" data-name="Path 3" d="M487.63,67.508s.893-3.4,3.808-3.638,3.917,1.3,3.468.883a3.485,3.485,0,0,1,1.587,2.755" transform="translate(-480.443 -63.846)" fill="none" stroke="#0076b6" stroke-linecap="round" stroke-width="1"/>
    <path id="Path_4" data-name="Path 4" d="M487.63,72.744a5.363,5.363,0,0,0,3.069,3.817,3.767,3.767,0,0,0,4.429-1.152,16.1,16.1,0,0,0,1.369-2.664" transform="translate(-480.443 -63.846)" fill="none" stroke="#0076b6" stroke-linecap="round" stroke-width="1"/>
    <path id="Path_5" data-name="Path 5" d="M487.63,67.755v5.215" transform="translate(-480.443 -64.092)" fill="none" stroke="#0076b6" stroke-width="1"/>
    <path id="Path_6" data-name="Path 6" d="M487.63,67.755v5.215" transform="translate(-471.574 -64.092)" fill="none" stroke="#0076b6" stroke-width="1"/>
  </g>
</svg>
