<svg id="icon-products" xmlns="http://www.w3.org/2000/svg" width="20" height="19.5" viewBox="0 0 20 19.5">
  <g id="Rectangle_24" data-name="Rectangle 24" transform="translate(11 8.5)" fill="none" stroke="#fff" stroke-width="1">
    <path d="M3,0H3A3,3,0,0,1,6,3V6A0,0,0,0,1,6,6H0A0,0,0,0,1,0,6V3A3,3,0,0,1,3,0Z" stroke="none"/>
    <path d="M3,.5H3A2.5,2.5,0,0,1,5.5,3V5.5a0,0,0,0,1,0,0H.5a0,0,0,0,1,0,0V3A2.5,2.5,0,0,1,3,.5Z" fill="none"/>
  </g>
  <rect id="Rectangle_25" data-name="Rectangle 25" width="4" height="4" transform="translate(12 11.5)" fill="#0076b6"/>
  <g id="Rectangle_26" data-name="Rectangle 26" transform="translate(0 3.5)" fill="none" stroke="#fff" stroke-width="1">
    <rect width="15" height="16" rx="2" stroke="none"/>
    <rect x="0.5" y="0.5" width="14" height="15" rx="1.5" fill="none"/>
  </g>
  <g id="Rectangle_27" data-name="Rectangle 27" transform="translate(8 11.5)" fill="none" stroke="#fff" stroke-width="1">
    <rect width="12" height="8" rx="2" stroke="none"/>
    <rect x="0.5" y="0.5" width="11" height="7" rx="1.5" fill="none"/>
  </g>
  <circle id="Ellipse_12" data-name="Ellipse 12" cx="0.75" cy="0.75" r="0.75" transform="translate(10.75 13.5)" fill="#fff" opacity="0.996"/>
  <circle id="Ellipse_13" data-name="Ellipse 13" cx="0.75" cy="0.75" r="0.75" transform="translate(15.75 13.5)" fill="#fff" opacity="0.996"/>
  <g id="Rectangle_28" data-name="Rectangle 28" transform="translate(3.5)" fill="none" stroke="#fff" stroke-width="1">
    <path d="M4,0H4A4,4,0,0,1,8,4V7.5a0,0,0,0,1,0,0H0a0,0,0,0,1,0,0V4A4,4,0,0,1,4,0Z" stroke="none"/>
    <path d="M4,.5H4A3.5,3.5,0,0,1,7.5,4V7a0,0,0,0,1,0,0H.5a0,0,0,0,1,0,0V4A3.5,3.5,0,0,1,4,.5Z" fill="none"/>
  </g>
  <rect id="Rectangle_29" data-name="Rectangle 29" width="6" height="3.761" transform="translate(4.5 5.5)" fill="#0076b6"/>
  <circle id="Ellipse_14" data-name="Ellipse 14" cx="0.75" cy="0.75" r="0.75" transform="translate(3.25 6.5)" fill="#fff" opacity="0.996"/>
  <circle id="Ellipse_15" data-name="Ellipse 15" cx="0.75" cy="0.75" r="0.75" transform="translate(10.25 6.5)" fill="#fff" opacity="0.996"/>
  <rect id="Rectangle_30" data-name="Rectangle 30" width="2.5" height="6" transform="translate(13 12.5)" fill="#0076b6"/>
  <circle id="Ellipse_16" data-name="Ellipse 16" cx="1" cy="1" r="1" transform="translate(13 9.5)" fill="#0076b6"/>
  <rect id="Rectangle_31" data-name="Rectangle 31" width="2" height="1" transform="translate(13 10.5)" fill="#0076b6"/>
  <ellipse id="Ellipse_17" data-name="Ellipse 17" cx="1" cy="0.5" rx="1" ry="0.5" transform="matrix(0.921, 0.391, -0.391, 0.921, 13.907, 9.261)" fill="#0076b6"/>
</svg>
