<svg id="icon-payin" xmlns="http://www.w3.org/2000/svg" width="59" height="59" viewBox="0 0 59 59">
  <circle id="Ellipse_27" data-name="Ellipse 27" cx="29.5" cy="29.5" r="29.5" fill="#0076b6"/>
  <line id="Line_18" data-name="Line 18" x2="27" transform="translate(15.5 17)" fill="none" stroke="#fff" stroke-linecap="round" stroke-width="1"/>
  <g id="Rectangle_33" data-name="Rectangle 33" transform="translate(20.5 16.5)" fill="none" stroke="#fff" stroke-width="1">
    <path d="M0,0H17a0,0,0,0,1,0,0V24.5a1,1,0,0,1-1,1H1a1,1,0,0,1-1-1V0A0,0,0,0,1,0,0Z" stroke="none"/>
    <path d="M.5.5h16a0,0,0,0,1,0,0v24a.5.5,0,0,1-.5.5H1a.5.5,0,0,1-.5-.5V.5A0,0,0,0,1,.5.5Z" fill="none"/>
  </g>
  <line id="Line_19" data-name="Line 19" y2="12" transform="translate(29 22.5)" fill="none" stroke="#fff" stroke-linecap="round" stroke-width="1"/>
  <line id="Line_20" data-name="Line 20" y1="4.5" x2="4.5" transform="translate(24.5 21.5)" fill="none" stroke="#fff" stroke-linecap="round" stroke-width="1"/>
  <line id="Line_21" data-name="Line 21" x1="4.5" y1="4.5" transform="translate(29 21.5)" fill="none" stroke="#fff" stroke-linecap="round" stroke-width="1"/>
</svg>
