<svg id="icon-payaccess" xmlns="http://www.w3.org/2000/svg" width="59" height="59" viewBox="0 0 59 59">
  <circle id="Ellipse_28" data-name="Ellipse 28" cx="29.5" cy="29.5" r="29.5" fill="#0076b6"/>
  <line id="Line_22" data-name="Line 22" x2="5" transform="translate(16 33.5)" fill="none" stroke="#fff" stroke-width="1"/>
  <line id="Line_23" data-name="Line 23" x2="5" transform="translate(23 33.5)" fill="none" stroke="#fff" stroke-width="1"/>
  <line id="Line_24" data-name="Line 24" x2="5" transform="translate(30 33.5)" fill="none" stroke="#fff" stroke-width="1"/>
  <line id="Line_25" data-name="Line 25" x2="5" transform="translate(37 33.5)" fill="none" stroke="#fff" stroke-width="1"/>
  <line id="Line_26" data-name="Line 26" y2="6" transform="translate(18.7 24.3)" fill="none" stroke="#fff" stroke-width="1"/>
  <line id="Line_27" data-name="Line 27" x1="5.5" y2="3.8" transform="translate(15.9 25.3)" fill="none" stroke="#fff" stroke-width="1"/>
  <line id="Line_28" data-name="Line 28" x2="5.5" y2="3.8" transform="translate(15.9 25.3)" fill="none" stroke="#fff" stroke-width="1"/>
  <line id="Line_29" data-name="Line 29" y2="6" transform="translate(25.7 24.3)" fill="none" stroke="#fff" stroke-width="1"/>
  <line id="Line_30" data-name="Line 30" x1="5.5" y2="3.8" transform="translate(22.9 25.3)" fill="none" stroke="#fff" stroke-width="1"/>
  <line id="Line_31" data-name="Line 31" x2="5.5" y2="3.8" transform="translate(22.9 25.3)" fill="none" stroke="#fff" stroke-width="1"/>
  <line id="Line_32" data-name="Line 32" y2="6" transform="translate(32.7 24.3)" fill="none" stroke="#fff" stroke-width="1"/>
  <line id="Line_33" data-name="Line 33" x1="5.5" y2="3.8" transform="translate(29.9 25.3)" fill="none" stroke="#fff" stroke-width="1"/>
  <line id="Line_34" data-name="Line 34" x2="5.5" y2="3.8" transform="translate(29.9 25.3)" fill="none" stroke="#fff" stroke-width="1"/>
  <line id="Line_35" data-name="Line 35" y2="6" transform="translate(39.7 24.3)" fill="none" stroke="#fff" stroke-width="1"/>
  <line id="Line_36" data-name="Line 36" x1="5.5" y2="3.8" transform="translate(36.9 25.3)" fill="none" stroke="#fff" stroke-width="1"/>
  <line id="Line_37" data-name="Line 37" x2="5.5" y2="3.8" transform="translate(36.9 25.3)" fill="none" stroke="#fff" stroke-width="1"/>
</svg>
