<svg id="icon-help" xmlns="http://www.w3.org/2000/svg" width="20" height="20" viewBox="0 0 20 20">
  <g id="Ellipse_19" data-name="Ellipse 19" fill="none" stroke="#fff" stroke-width="1">
    <circle cx="10" cy="10" r="10" stroke="none"/>
    <circle cx="10" cy="10" r="9.5" fill="none"/>
  </g>
  <path id="Path_20" data-name="Path 20" d="M3.536-4.216a1.954,1.954,0,0,1,.1-.68,2.3,2.3,0,0,1,.425-.646Q4.386-5.916,5.168-6.7a5.345,5.345,0,0,0,.977-1.215,2.422,2.422,0,0,0,.247-1.114,2.124,2.124,0,0,0-.595-1.6A2.341,2.341,0,0,0,4.1-11.2a2.42,2.42,0,0,0-1.641.51,2.7,2.7,0,0,0-.791,1.6L.6-9.5a2.806,2.806,0,0,1,1.088-1.929A3.948,3.948,0,0,1,4.1-12.1a3.64,3.64,0,0,1,2.533.816,2.854,2.854,0,0,1,.9,2.227,3.219,3.219,0,0,1-.314,1.428A5.413,5.413,0,0,1,6.154-6.239q-.816.816-1.079,1.1a1.656,1.656,0,0,0-.332.451,1.324,1.324,0,0,0-.068.476v.952H3.536Zm.578,4.4A.849.849,0,0,1,3.5-.06a.807.807,0,0,1-.255-.6A.835.835,0,0,1,3.5-1.275a.835.835,0,0,1,.612-.255.815.815,0,0,1,.6.255.835.835,0,0,1,.255.612.821.821,0,0,1-.246.6A.821.821,0,0,1,4.114.187Z" transform="translate(5.7 16)" fill="#fff"/>
</svg>
