<svg id="icon-home" xmlns="http://www.w3.org/2000/svg" width="18" height="20" viewBox="0 0 18 20">
  <path id="Rectangle_22" data-name="Rectangle 22" d="M0,0H18a0,0,0,0,1,0,0V11a1,1,0,0,1-1,1H1a1,1,0,0,1-1-1V0A0,0,0,0,1,0,0Z" transform="translate(0 8)" fill="#fff"/>
  <path id="Polygon_1" data-name="Polygon 1" d="M9,0l9,8H0Z" fill="#fff"/>
  <path id="Rectangle_23" data-name="Rectangle 23" d="M1.5,0h0A1.5,1.5,0,0,1,3,1.5V7A0,0,0,0,1,3,7H0A0,0,0,0,1,0,7V1.5A1.5,1.5,0,0,1,1.5,0Z" transform="translate(5 13)" fill="#0076b6"/>
</svg>
