<svg id="icon-spending" xmlns="http://www.w3.org/2000/svg" width="58" height="58" viewBox="0 0 58 58">
  <circle id="Ellipse_7" data-name="Ellipse 7" cx="29" cy="29" r="29" fill="#0076b6"/>
  <g id="Rectangle_16" data-name="Rectangle 16" transform="translate(14 19)" fill="none" stroke="#fff" stroke-width="1">
    <path d="M2,0H23a2,2,0,0,1,2,2V4a0,0,0,0,1,0,0H0A0,0,0,0,1,0,4V2A2,2,0,0,1,2,0Z" stroke="none"/>
    <path d="M2,.5H23A1.5,1.5,0,0,1,24.5,2V3.5a0,0,0,0,1,0,0H.5a0,0,0,0,1,0,0V2A1.5,1.5,0,0,1,2,.5Z" fill="none"/>
  </g>
  <g id="Rectangle_17" data-name="Rectangle 17" transform="translate(17.123 23.483) rotate(-43)" fill="#0076b6" stroke="#fff" stroke-width="1">
    <rect width="14" height="13.375" rx="1" stroke="none"/>
    <rect x="0.5" y="0.5" width="13" height="12.375" rx="0.5" fill="none"/>
  </g>
  <g id="Rectangle_14" data-name="Rectangle 14" transform="translate(14 22)" fill="#0076b6" stroke="#fff" stroke-width="1">
    <rect width="28" height="22" rx="2" stroke="none"/>
    <rect x="0.5" y="0.5" width="27" height="21" rx="1.5" fill="none"/>
  </g>
  <g id="Rectangle_15" data-name="Rectangle 15" transform="translate(32 28.5)" fill="none" stroke="#fff" stroke-width="1">
    <path d="M4,0h7.2a.8.8,0,0,1,.8.8V7.2a.8.8,0,0,1-.8.8H4A4,4,0,0,1,0,4V4A4,4,0,0,1,4,0Z" stroke="none"/>
    <path d="M4,.5h7.111A.389.389,0,0,1,11.5.889V7.111a.389.389,0,0,1-.389.389H4A3.5,3.5,0,0,1,.5,4V4A3.5,3.5,0,0,1,4,.5Z" fill="none"/>
  </g>
  <circle id="Ellipse_1" data-name="Ellipse 1" cx="1" cy="1" r="1" transform="translate(36.5 31.5)" fill="#fff"/>
  <line id="Line_8" data-name="Line 8" y2="2.5" transform="translate(36.5 14.5)" fill="none" stroke="#fff" stroke-linecap="round" stroke-width="1"/>
  <line id="Line_9" data-name="Line 9" y1="3" x2="3" transform="translate(39.5 14.5)" fill="none" stroke="#fff" stroke-linecap="round" stroke-width="1"/>
  <line id="Line_10" data-name="Line 10" x2="3" transform="translate(41.5 20)" fill="none" stroke="#fff" stroke-linecap="round" stroke-width="1"/>
  <line id="Line_11" data-name="Line 11" y2="2" transform="translate(14.5 22.5)" fill="none" stroke="#fff" stroke-width="1"/>
</svg>
